<?xml version="1.0" encoding="UTF-8" standalone="no"?>
<svg width="15px" height="15px" viewBox="0 0 15 15" version="1.1" xmlns="http://www.w3.org/2000/svg" xmlns:xlink="http://www.w3.org/1999/xlink">
    <!-- Generator: Sketch 3.8.3 (29802) - http://www.bohemiancoding.com/sketch -->
    <title>instagram</title>
    <desc>Created with Sketch.</desc>
    <defs></defs>
    <g id="Symbols" stroke="none" stroke-width="1" fill="none" fill-rule="evenodd">
        <g id="Header---Desktop" transform="translate(-1045.000000, -50.000000)" fill="#0A0A08">
            <g id="Logos" transform="translate(943.000000, 50.000000)">
                <path d="M109.497649,0 C107.461399,0 107.206071,0.00863095238 106.406369,0.0451190476 C105.608333,0.0815178571 105.063304,0.20827381 104.586399,0.393630952 C104.093363,0.585208333 103.675238,0.841577381 103.258393,1.25839286 C102.841577,1.6752381 102.585208,2.0933631 102.393631,2.58639881 C102.208274,3.06330357 102.081518,3.60833333 102.045119,4.40636905 C102.008631,5.20607143 102,5.46139881 102,7.49764881 C102,9.53386905 102.008631,9.78919643 102.045119,10.5888988 C102.081518,11.3869345 102.208274,11.9319643 102.393631,12.408869 C102.585208,12.9019048 102.841577,13.3200298 103.258393,13.736875 C103.675238,14.1536905 104.093363,14.4100595 104.586399,14.6016667 C105.063304,14.786994 105.608333,14.91375 106.406369,14.9501488 C107.206071,14.9866369 107.461399,14.9952679 109.497649,14.9952679 C111.533869,14.9952679 111.789196,14.9866369 112.588899,14.9501488 C113.386935,14.91375 113.931964,14.786994 114.408869,14.6016667 C114.901905,14.4100595 115.32003,14.1536905 115.736875,13.736875 C116.15369,13.3200298 116.41006,12.9019048 116.601667,12.408869 C116.786994,11.9319643 116.91375,11.3869345 116.950149,10.5888988 C116.986637,9.78919643 116.995268,9.53386905 116.995268,7.49764881 C116.995268,5.46139881 116.986637,5.20607143 116.950149,4.40636905 C116.91375,3.60833333 116.786994,3.06330357 116.601667,2.58639881 C116.41006,2.0933631 116.15369,1.6752381 115.736875,1.25839286 C115.32003,0.841577381 114.901905,0.585208333 114.408869,0.393630952 C113.931964,0.20827381 113.386935,0.0815178571 112.588899,0.0451190476 C111.789196,0.00863095238 111.533869,0 109.497649,0 L109.497649,0 Z M109.497649,1.35092262 C111.499583,1.35092262 111.736726,1.35857143 112.527321,1.39464286 C113.258333,1.42797619 113.655327,1.55011905 113.919524,1.65279762 C114.269494,1.78880952 114.519256,1.95127976 114.781607,2.21366071 C115.043988,2.4760119 115.206458,2.72577381 115.34247,3.07574405 C115.445149,3.33994048 115.567292,3.73693452 115.600625,4.46794643 C115.636696,5.25854167 115.644345,5.49568452 115.644345,7.49764881 C115.644345,9.49958333 115.636696,9.73672619 115.600625,10.5273214 C115.567292,11.2583333 115.445149,11.6553274 115.34247,11.9195238 C115.206458,12.269494 115.043988,12.519256 114.781607,12.7816071 C114.519256,13.0439881 114.269494,13.2064583 113.919524,13.3424702 C113.655327,13.4451488 113.258333,13.5672917 112.527321,13.600625 C111.736845,13.6366964 111.499732,13.6443452 109.497649,13.6443452 C107.495536,13.6443452 107.258452,13.6366964 106.467946,13.600625 C105.736935,13.5672917 105.33994,13.4451488 105.075744,13.3424702 C104.725774,13.2064583 104.476012,13.0439881 104.213661,12.7816071 C103.95131,12.519256 103.78881,12.269494 103.652798,11.9195238 C103.550119,11.6553274 103.427976,11.2583333 103.394643,10.5273214 C103.358571,9.73672619 103.350923,9.49958333 103.350923,7.49764881 C103.350923,5.49568452 103.358571,5.25854167 103.394643,4.46794643 C103.427976,3.73693452 103.550119,3.33994048 103.652798,3.07574405 C103.78881,2.72577381 103.95128,2.4760119 104.213661,2.21366071 C104.476012,1.95127976 104.725774,1.78880952 105.075744,1.65279762 C105.33994,1.55011905 105.736935,1.42797619 106.467946,1.39464286 C107.258542,1.35857143 107.495685,1.35092262 109.497649,1.35092262 Z M109.497649,9.99684524 C108.117351,9.99684524 106.998423,8.87791667 106.998423,7.49764881 C106.998423,6.11735119 108.117351,4.99842262 109.497649,4.99842262 C110.877917,4.99842262 111.996845,6.11735119 111.996845,7.49764881 C111.996845,8.87791667 110.877917,9.99684524 109.497649,9.99684524 Z M109.497649,3.6475 C107.37125,3.6475 105.6475,5.37125 105.6475,7.49764881 C105.6475,9.62401786 107.37125,11.3477679 109.497649,11.3477679 C111.624018,11.3477679 113.347768,9.62401786 113.347768,7.49764881 C113.347768,5.37125 111.624018,3.6475 109.497649,3.6475 Z M114.399613,3.4953869 C114.399613,3.99229167 113.996786,4.39508929 113.499881,4.39508929 C113.003006,4.39508929 112.600179,3.99229167 112.600179,3.4953869 C112.600179,2.99848214 113.003006,2.59565476 113.499881,2.59565476 C113.996786,2.59565476 114.399613,2.99848214 114.399613,3.4953869 Z" id="instagram"></path>
            </g>
        </g>
    </g>
</svg>