<?xml version="1.0" encoding="UTF-8" standalone="no"?>
<svg width="16px" height="15px" viewBox="0 0 16 15" version="1.1" xmlns="http://www.w3.org/2000/svg" xmlns:xlink="http://www.w3.org/1999/xlink">
    <!-- Generator: Sketch 3.8.3 (29802) - http://www.bohemiancoding.com/sketch -->
    <title>snapchat</title>
    <desc>Created with Sketch.</desc>
    <defs></defs>
    <g id="Symbols" stroke="none" stroke-width="1" fill="none" fill-rule="evenodd">
        <g id="Header---Desktop" transform="translate(-1009.000000, -50.000000)" fill="#000000">
            <g id="Logos" transform="translate(943.000000, 50.000000)">
                <path d="M73.969199,14.9969718 C73.9433128,14.9989558 73.9163302,15 73.889358,15 C72.9426271,15 72.3349438,14.5705126 71.7473616,14.1550178 C71.3416198,13.8683797 70.9587673,13.597718 70.5076228,13.5225343 C70.2874805,13.486091 70.068372,13.4676083 69.8566252,13.4676083 C69.4751615,13.4676083 69.1742175,13.5265023 68.9545243,13.5694197 C68.8210104,13.5956296 68.705833,13.6180803 68.6183066,13.6180803 C68.5268538,13.6180803 68.427747,13.5982401 68.3846938,13.4511097 C68.3472586,13.3236105 68.320182,13.2001838 68.2941391,13.0807251 C68.2270272,12.773307 68.1793795,12.5843033 68.0505646,12.5644631 C66.5489784,12.332542 66.1192154,12.0162481 66.0233904,11.7918453 C66.0098207,11.7597878 66.0021032,11.7276259 66.0002704,11.6957772 C65.9954148,11.6096291 66.0564788,11.5335055 66.1416598,11.519513 C68.4499367,11.1394172 69.4850294,8.78025451 69.5279886,8.68005124 C69.6729784,8.38557098 69.7006398,8.13703637 69.6141993,7.93333008 C69.4558017,7.56000084 68.9391847,7.39594356 68.597182,7.28744918 C68.5135087,7.26098867 68.4341794,7.23593785 68.3715993,7.21124206 C67.6891916,6.94145759 67.632407,6.66453066 67.6592225,6.52339399 C67.7049489,6.28289987 68.0263491,6.11530268 68.2862657,6.11530268 C68.3575546,6.11530268 68.4202913,6.12793774 68.4730557,6.15257087 C68.7800457,6.29637029 69.0566802,6.36926724 69.2954096,6.36926724 C69.625268,6.36926724 69.7692241,6.23064714 69.7868505,6.21247772 C69.778455,6.05626253 69.768065,5.89307195 69.7574557,5.72474382 C69.6887043,4.63343033 69.6035274,3.27741772 69.948788,2.50340067 C70.983557,0.183223922 73.1779106,0.00299049761 73.8257859,0.00299049761 C73.8423786,0.00299049761 74.1098136,0.000160779475 74.1098136,0.000160779475 C74.7975677,0 76.9966724,0.180587269 78.0320158,2.50201186 C78.3774435,3.27645703 78.2920263,4.63362873 78.2231079,5.7240964 L78.2201841,5.77149351 C78.2106817,5.92336475 78.2014925,6.07093381 78.1937653,6.21221667 C78.210264,6.22907037 78.342671,6.3565382 78.6417354,6.36801417 C78.8692707,6.35930539 79.1304299,6.28685746 79.4170681,6.15260219 C79.5011278,6.11340221 79.5943765,6.1051111 79.6578651,6.1051111 C79.754873,6.1051111 79.8532385,6.12388617 79.9348964,6.15797992 C80.1717253,6.24215443 80.3235548,6.40467671 80.3267919,6.57445631 C80.3298201,6.73433671 80.2077509,6.97473686 79.6089956,7.21127339 C79.546969,7.23564547 79.4676083,7.26085292 79.3836531,7.28748051 C79.0412536,7.39610019 78.5247828,7.56003216 78.3664792,7.93326743 C78.2800178,8.13687973 78.3076896,8.38524727 78.4489725,8.67169748 C78.4956491,8.78019186 79.5298438,11.1386862 81.8391346,11.5191997 C81.9244473,11.5332967 81.9852208,11.6093158 81.9805218,11.6956728 C81.9786422,11.7279391 81.9708106,11.7605188 81.9569225,11.792263 C81.8616897,12.014995 81.4323067,12.3308713 79.9301974,12.5630012 C79.8075017,12.5817972 79.7599897,12.7417716 79.6866855,13.0769659 C79.6600579,13.1990351 79.6331171,13.3189115 79.5960473,13.4449488 C79.5639898,13.5543829 79.4959067,13.6055497 79.381147,13.6055497 C79.2828859,13.6055497 79.169797,13.5913483 79.0264257,13.5631544 C78.7720539,13.5134495 78.4869821,13.4676083 78.1242203,13.4676083 C77.9123482,13.4676083 77.6931666,13.486091 77.4729408,13.5225343 C77.0222558,13.597718 76.6396539,13.8678575 76.2346743,14.154078 C75.6459331,14.5705126 75.0383542,15 74.0913309,15 C74.0501364,15 74.0096834,14.9988514 73.969199,14.9969718 Z" id="snapchat"></path>
            </g>
        </g>
    </g>
</svg>