<?xml version="1.0" encoding="UTF-8" standalone="no"?>
<svg width="19px" height="15px" viewBox="0 0 19 15" version="1.1" xmlns="http://www.w3.org/2000/svg" xmlns:xlink="http://www.w3.org/1999/xlink">
    <!-- Generator: Sketch 3.8.3 (29802) - http://www.bohemiancoding.com/sketch -->
    <title>twitter</title>
    <desc>Created with Sketch.</desc>
    <defs></defs>
    <g id="Symbols" stroke="none" stroke-width="1" fill="none" fill-rule="evenodd">
        <g id="Header---Desktop" transform="translate(-943.000000, -50.000000)" fill="#000000">
            <g id="Logos" transform="translate(943.000000, 50.000000)">
                <path d="M16.2821303,2.37166125 C17.0642079,1.9033272 17.6645145,1.16130979 17.9472694,0.276614323 C17.2155621,0.710737953 16.405501,1.02594394 15.5426363,1.19589129 C14.8521742,0.459937787 13.8678855,0 12.7788412,0 C10.6875989,0 8.99214029,1.69550723 8.99214029,3.78673745 C8.99214029,4.0834719 9.02559881,4.37233447 9.09017982,4.64946831 C5.94304752,4.49177529 3.1526195,2.98435358 1.2849895,0.693166757 C0.959141272,1.25223665 0.772370972,1.90262153 0.772370972,2.59687964 C0.772370972,3.91055829 1.44084534,5.0695126 2.45690138,5.7487813 C1.83633716,5.72884002 1.25220015,5.5587126 0.741798405,5.27493572 C0.741461387,5.2906673 0.741461387,5.30659356 0.741461387,5.32289698 C0.741461387,7.15725097 2.04676081,8.68771647 3.77920624,9.03585536 C3.46141118,9.12221483 3.12683819,9.16867959 2.78143681,9.16867959 C2.53718965,9.16867959 2.30010869,9.14507612 2.0688556,9.10063105 C2.55093806,10.6049502 3.94933367,11.699871 5.60606552,11.7304095 C4.31010163,12.7461127 2.67750858,13.3514077 0.903165784,13.3514077 C0.597665204,13.3514077 0.296359714,13.3332793 0,13.2986041 C1.67610129,14.3731699 3.66632329,15 5.80471177,15 C12.7700812,15 16.5785119,9.22978092 16.5785119,4.22576184 C16.5785119,4.06185161 16.5752269,3.89812389 16.5679269,3.73585617 C17.3075426,3.2020286 17.9498244,2.5350483 18.4571772,1.77545483 C17.7783951,2.07694647 17.0485128,2.28039858 16.2821303,2.37166125 Z" id="twitter"></path>
            </g>
        </g>
    </g>
</svg>